<svg width="1647" height="926" xmlns="http://www.w3.org/2000/svg" xmlns:xlink="http://www.w3.org/1999/xlink" xml:space="preserve" overflow="hidden"><defs><clipPath id="clip0"><rect x="2232" y="831" width="1647" height="926"/></clipPath><linearGradient x1="2412.25" y1="650.75" x2="3698.75" y2="1937.25" gradientUnits="userSpaceOnUse" spreadMethod="reflect" id="fill1"><stop offset="0" stop-color="#0590D6"/><stop offset="0.3" stop-color="#0590D6"/><stop offset="1" stop-color="#002A60"/></linearGradient><linearGradient x1="2934.48" y1="960.637" x2="3577.98" y2="1604.14" gradientUnits="userSpaceOnUse" spreadMethod="reflect" id="fill2"><stop offset="0" stop-color="#E0DFDC"/><stop offset="0.0294118" stop-color="#E1E0DD"/><stop offset="0.0588235" stop-color="#E3E2DF"/><stop offset="0.0882353" stop-color="#E4E4E1"/><stop offset="0.117647" stop-color="#E6E5E3"/><stop offset="0.147059" stop-color="#E7E7E5"/><stop offset="0.176471" stop-color="#E9E8E6"/><stop offset="0.205882" stop-color="#EAEAE8"/><stop offset="0.235294" stop-color="#ECEBE9"/><stop offset="0.264706" stop-color="#EDEDEB"/><stop offset="0.294118" stop-color="#EEEEEC"/><stop offset="0.323529" stop-color="#F0EFEE"/><stop offset="0.352941" stop-color="#F1F0EF"/><stop offset="0.382353" stop-color="#F2F2F0"/><stop offset="0.411765" stop-color="#F3F3F2"/><stop offset="0.441176" stop-color="#F4F4F3"/><stop offset="0.470588" stop-color="#F5F5F4"/><stop offset="0.5" stop-color="#F6F6F5"/><stop offset="0.529412" stop-color="#F7F7F6"/><stop offset="0.558824" stop-color="#F8F8F7"/><stop offset="0.588235" stop-color="#F9F8F8"/><stop offset="0.617647" stop-color="#F9F9F9"/><stop offset="0.647059" stop-color="#FAFAFA"/><stop offset="0.676471" stop-color="#FBFBFA"/><stop offset="0.705882" stop-color="#FBFBFB"/><stop offset="0.735294" stop-color="#FCFCFC"/><stop offset="0.764706" stop-color="#FCFCFC"/><stop offset="0.794118" stop-color="#FDFDFD"/><stop offset="0.823529" stop-color="#FDFDFD"/><stop offset="0.852941" stop-color="#FEFEFE"/><stop offset="0.882353" stop-color="#FEFEFE"/><stop offset="0.911765" stop-color="#FEFEFE"/><stop offset="0.941176" stop-color="#FEFEFE"/><stop offset="0.970588" stop-color="#FEFEFE"/><stop offset="1" stop-color="#FFFFFF"/></linearGradient><linearGradient x1="3256.23" y1="1430.89" x2="3256.23" y2="1133.89" gradientUnits="userSpaceOnUse" spreadMethod="reflect" id="fill3"><stop offset="0" stop-color="#E0DFDC"/><stop offset="0.0294118" stop-color="#E1E0DD"/><stop offset="0.0588235" stop-color="#E3E2DF"/><stop offset="0.0882353" stop-color="#E4E4E1"/><stop offset="0.117647" stop-color="#E6E5E3"/><stop offset="0.147059" stop-color="#E7E7E5"/><stop offset="0.176471" stop-color="#E9E8E6"/><stop offset="0.205882" stop-color="#EAEAE8"/><stop offset="0.235294" stop-color="#ECEBE9"/><stop offset="0.264706" stop-color="#EDEDEB"/><stop offset="0.294118" stop-color="#EEEEEC"/><stop offset="0.323529" stop-color="#F0EFEE"/><stop offset="0.352941" stop-color="#F1F0EF"/><stop offset="0.382353" stop-color="#F2F2F0"/><stop offset="0.411765" stop-color="#F3F3F2"/><stop offset="0.441176" stop-color="#F4F4F3"/><stop offset="0.470588" stop-color="#F5F5F4"/><stop offset="0.5" stop-color="#F6F6F5"/><stop offset="0.529412" stop-color="#F7F7F6"/><stop offset="0.558824" stop-color="#F8F8F7"/><stop offset="0.588235" stop-color="#F9F8F8"/><stop offset="0.617647" stop-color="#F9F9F9"/><stop offset="0.647059" stop-color="#FAFAFA"/><stop offset="0.676471" stop-color="#FBFBFA"/><stop offset="0.705882" stop-color="#FBFBFB"/><stop offset="0.735294" stop-color="#FCFCFC"/><stop offset="0.764706" stop-color="#FCFCFC"/><stop offset="0.794118" stop-color="#FDFDFD"/><stop offset="0.823529" stop-color="#FDFDFD"/><stop offset="0.852941" stop-color="#FEFEFE"/><stop offset="0.882353" stop-color="#FEFEFE"/><stop offset="0.911765" stop-color="#FEFEFE"/><stop offset="0.941176" stop-color="#FEFEFE"/><stop offset="0.970588" stop-color="#FEFEFE"/><stop offset="1" stop-color="#FFFFFF"/></linearGradient><linearGradient x1="143.5" y1="14.5112" x2="143.5" y2="269.264" gradientUnits="userSpaceOnUse" spreadMethod="pad" id="stroke4"><stop offset="0" stop-color="#E0DFDC"/><stop offset="1" stop-color="#FFFFFF"/></linearGradient><linearGradient x1="156.903" y1="107.02" x2="156.903" y2="239.637" gradientUnits="userSpaceOnUse" spreadMethod="pad" id="fill5"><stop offset="0" stop-color="#E0DFDC"/><stop offset="1" stop-color="#FFFFFF"/></linearGradient></defs><g clip-path="url(#clip0)" transform="translate(-2232 -831)"><rect x="2232" y="831" width="1647" height="926" fill="url(#fill1)"/><path d="M2881.23 1281.7 2881.23 1316.45 2933.3 1316.45 2933.3 1281.7ZM2811.36 1281.7 2811.36 1316.45 2858.95 1316.45 2858.95 1281.7ZM2881.23 1228.9 2881.23 1263.05 2933.3 1263.05 2933.3 1228.9ZM2811.36 1228.9 2811.36 1263.05 2858.95 1263.05 2858.95 1228.9ZM3114.33 1228.17C3108.6 1242.06 3098.11 1258.89 3082.85 1278.67 3093.1 1286.58 3104.69 1296.51 3117.6 1308.46 3112.44 1313.22 3106.75 1319.52 3100.53 1327.35 3094.39 1318.23 3087.01 1309.63 3078.37 1301.55L3078.37 1373.48C3078.53 1381.88 3079.06 1389.55 3079.94 1396.49L3054.64 1396.49C3055.77 1383.74 3056.33 1376.07 3056.33 1373.48L3056.33 1306.76C3051.08 1311.61 3042.81 1318.71 3031.51 1328.07 3026.42 1320.97 3019.07 1314.75 3009.47 1309.43 3033.44 1298.93 3056.25 1278.71 3077.89 1248.76L3043.25 1248.76C3039.54 1248.84 3032.07 1249.48 3020.85 1250.7L3020.85 1228.9C3021.98 1228.98 3023.72 1229.14 3026.06 1229.38 3034.94 1230.19 3040.67 1230.59 3043.25 1230.59L3088.3 1230.59C3096.21 1230.67 3104.89 1229.87 3114.33 1228.17ZM3158.78 1222.72 3185.54 1226.36C3189.33 1226.92 3191.33 1228.07 3191.53 1229.81 3191.73 1231.54 3190.14 1233.94 3186.75 1237.01 3184.81 1239.11 3183.84 1243.19 3183.84 1249.24 3183.84 1261.92 3182.75 1276.53 3180.57 1293.08L3191.96 1296.35C3196.4 1297.56 3198.78 1298.81 3199.1 1300.1 3199.18 1300.26 3199.22 1300.46 3199.22 1300.71 3199.22 1302 3197.97 1303.86 3195.47 1306.28 3194.01 1307.81 3193.29 1311.28 3193.29 1316.69L3193.29 1367.31C3192.88 1371.18 3196.27 1372.92 3203.46 1372.52 3212.66 1372.68 3218.35 1370.74 3220.53 1366.7 3223.2 1363.55 3225.34 1353.75 3226.95 1337.28 3235.11 1346.16 3243.3 1352.17 3251.53 1355.32 3247.17 1371.22 3242.09 1381.27 3236.28 1385.47 3230.71 1390.4 3220.41 1392.78 3205.4 1392.62 3192.24 1392.78 3183.16 1391.08 3178.15 1387.53 3173.07 1384.22 3170.56 1378.05 3170.64 1369L3170.64 1323.11C3158.13 1351.28 3136.25 1375.83 3105.01 1396.73 3099.76 1390.76 3092.7 1385.07 3083.82 1379.66 3117.08 1365.45 3140.33 1340.75 3153.57 1305.55 3158.33 1290.94 3160.79 1273.38 3160.96 1252.87 3160.96 1242.54 3160.23 1232.49 3158.78 1222.72ZM3119.06 1181.07C3132.38 1182.2 3141.58 1182.84 3146.67 1183L3200.67 1183C3204.47 1182.92 3213.55 1182.28 3227.92 1181.07 3227.03 1190.92 3226.47 1199.31 3226.23 1206.25L3226.23 1289.69C3226.47 1296.31 3227.03 1304.06 3227.92 1312.94L3201.64 1312.94C3202.77 1302.77 3203.46 1295.02 3203.7 1289.69L3203.7 1201.05 3142.67 1201.05 3142.67 1293.08C3142.83 1298.97 3143.4 1306.52 3144.37 1315.72L3118.82 1315.72C3120.11 1303.86 3120.79 1296.39 3120.87 1293.32L3120.87 1206.86C3120.87 1204.76 3120.51 1199.19 3119.78 1190.15 3119.46 1186.11 3119.22 1183.08 3119.06 1181.07ZM3051.12 1172.59C3061.05 1180.1 3076.43 1192.65 3097.26 1210.25L3081.64 1228.9C3066.79 1213.32 3051.73 1200.64 3036.47 1190.87ZM2857.01 1170.05 2882.8 1173.32C2886.6 1173.8 2888.64 1174.97 2888.92 1176.83 2889.2 1178.68 2887.65 1180.99 2884.26 1183.73 2882.16 1185.1 2881.15 1188.57 2881.23 1194.14L2881.23 1210.25 2923.85 1210.25C2935.16 1210.17 2946.42 1209.6 2957.64 1208.55 2956.43 1218.97 2955.78 1230.19 2955.7 1242.22L2955.7 1304.46C2955.78 1315.68 2956.43 1326.62 2957.64 1337.28 2946.74 1335.82 2935.84 1335.06 2924.94 1334.98L2881.23 1334.98 2881.23 1363.8C2881.15 1368.88 2882.48 1372.27 2885.23 1373.97 2887.73 1375.83 2892.61 1376.71 2899.88 1376.63L2938.51 1376.63C2949.57 1376.87 2956.71 1374.57 2959.94 1369.73 2963.65 1365.29 2966.12 1354.63 2967.33 1337.76 2977.5 1346.88 2985.94 1352.66 2992.64 1355.08 2986.66 1373.97 2980.73 1385.63 2974.83 1390.07 2969.35 1395.4 2958.73 1397.9 2942.99 1397.58L2896.85 1397.58C2882.64 1397.66 2872.79 1395.64 2867.3 1391.53 2861.65 1387.57 2858.87 1380.55 2858.95 1370.46L2858.95 1334.98 2819.71 1334.98C2810.19 1335.06 2799.29 1335.82 2787.02 1337.28 2788.15 1326.14 2788.79 1317.22 2788.96 1310.52L2788.96 1241.25C2788.79 1230.51 2788.15 1219.61 2787.02 1208.55 2799.69 1209.68 2810.59 1210.25 2819.71 1210.25L2858.95 1210.25 2858.95 1202.38C2858.79 1193.34 2858.14 1182.56 2857.01 1170.05Z" fill="url(#fill2)" fill-rule="evenodd"/><text fill="#000000" fill-opacity="0" font-family="Arial,Arial_MSFontService,sans-serif" font-size="227.563" x="2787.02" y="1369.16">电视</text><path d="M3339.3 1357.14 3339.3 1372.52 3422.85 1372.52 3422.85 1357.14ZM3672.67 1347.45 3672.67 1364.28 3699.43 1364.28 3699.43 1347.45ZM3624.47 1347.45 3624.47 1364.28 3650.26 1364.28 3650.26 1347.45ZM3339.3 1324.8 3339.3 1338.97 3422.85 1338.97 3422.85 1324.8ZM3672.67 1312.94 3672.67 1328.8 3699.43 1328.8 3699.43 1312.94ZM3624.47 1312.94 3624.47 1328.8 3650.26 1328.8 3650.26 1312.94ZM3339.3 1292.59 3339.3 1306.76 3422.85 1306.76 3422.85 1292.59ZM3650.26 1267.29C3644.53 1275.2 3635.85 1284.2 3624.23 1294.29L3701.61 1294.29C3692.57 1288.8 3682.92 1279.8 3672.67 1267.29L3672.67 1269.83C3672.67 1273.86 3673.23 1280.28 3674.36 1289.08L3648.57 1289.08C3649.54 1281.65 3650.1 1275.24 3650.26 1269.83ZM3339.3 1260.62 3339.3 1274.55 3422.85 1274.55 3422.85 1260.62ZM3650.26 1202.62C3644.13 1203.19 3635.37 1203.59 3623.99 1203.83 3632.95 1214.08 3639.65 1221.96 3644.09 1227.45L3634.16 1235.32 3650.26 1235.32ZM3545.88 1173.07 3573.37 1177.07C3575.79 1177.47 3577.08 1178.48 3577.24 1180.1 3577.41 1181.71 3576.4 1183.57 3574.22 1185.67 3571.55 1188.09 3570.22 1192.49 3570.22 1198.87L3570.22 1223.21C3576.44 1223.13 3583.86 1222.44 3592.5 1221.15L3592.5 1244.04C3582.9 1242.58 3575.47 1241.81 3570.22 1241.73L3570.22 1273.82C3577.57 1268.66 3585.56 1262.2 3594.2 1254.45 3592.99 1263.98 3592.26 1273.46 3592.02 1282.91 3585.16 1286.38 3577.89 1290.54 3570.22 1295.38L3570.22 1365.25C3570.46 1378.57 3568.2 1387.05 3563.44 1390.68 3559.32 1394.8 3548.83 1397.42 3531.96 1398.55 3531.55 1389.67 3527.11 1380.99 3518.64 1372.52 3531.71 1374.45 3539.91 1375.42 3543.22 1375.42 3545.16 1375.42 3546.41 1374.88 3546.97 1373.79 3547.54 1372.7 3547.82 1370.17 3547.82 1366.22L3547.82 1309.43C3541.68 1314.03 3534.18 1320 3525.3 1327.35L3509.43 1306.04C3521.62 1301.27 3534.42 1294.89 3547.82 1286.9L3547.82 1241.73 3536.92 1241.73C3534.82 1241.73 3527.31 1242.5 3514.4 1244.04L3514.4 1221.15C3521.5 1222.28 3529.01 1222.96 3536.92 1223.21L3547.82 1223.21 3547.82 1198.14C3547.58 1192.33 3546.93 1183.97 3545.88 1173.07ZM3365.57 1172.59 3390.4 1176.1C3394.43 1176.67 3396.69 1177.7 3397.18 1179.19 3397.66 1180.68 3396.41 1182.52 3393.42 1184.7 3391.57 1185.99 3390.56 1188.17 3390.4 1191.24 3390.24 1193.42 3389.83 1198.02 3389.19 1205.04L3447.67 1205.04C3458.17 1204.8 3467.61 1204.07 3476.01 1202.86L3476.01 1226.11C3467.61 1224.66 3458.17 1223.85 3447.67 1223.69L3388.22 1223.69C3388.14 1224.74 3388.02 1226.68 3387.85 1229.5 3387.53 1234.91 3387.21 1239.07 3386.89 1241.98L3420.67 1241.98C3428.5 1241.98 3437.42 1241.33 3447.43 1240.04 3446.14 1248.19 3445.49 1256.71 3445.49 1265.59L3445.49 1372.52 3464.51 1372.52C3473.47 1372.35 3482.23 1371.59 3490.78 1370.21L3490.78 1393.34C3482.15 1391.81 3473.39 1390.96 3464.51 1390.8L3294.37 1390.8C3287.19 1390.88 3278.95 1391.73 3269.67 1393.34L3269.67 1370.21C3279.27 1371.67 3287.51 1372.43 3294.37 1372.52L3317.01 1372.52 3317.01 1266.32C3317.01 1256.87 3316.25 1248.03 3314.71 1239.8 3325.45 1241.17 3334.65 1241.9 3342.32 1241.98L3364.12 1241.98C3364.2 1240.52 3364.36 1238.67 3364.6 1236.41 3365.01 1231.89 3365.25 1227.65 3365.33 1223.69L3312.05 1223.69C3303.73 1223.85 3294.73 1224.66 3285.05 1226.11L3285.05 1202.86C3293.93 1204.24 3303.01 1204.96 3312.29 1205.04L3366.3 1205.04C3366.62 1201.09 3366.78 1196.04 3366.78 1189.91 3366.78 1185.22 3366.38 1179.45 3365.57 1172.59ZM3712.26 1171.14 3725.95 1190.63C3726.92 1192.09 3727.4 1193.34 3727.4 1194.39 3727.4 1195.27 3727 1196.04 3726.19 1196.69 3725.3 1197.25 3724.21 1197.54 3722.92 1197.54 3721.47 1197.54 3719.57 1197.17 3717.23 1196.45 3716.26 1196.04 3715.05 1195.84 3713.6 1195.84 3712.71 1195.84 3711.7 1195.92 3710.57 1196.08 3695.23 1198.26 3682.6 1199.84 3672.67 1200.8L3672.67 1235.32 3679.81 1235.32C3687.72 1221.11 3693.66 1209.36 3697.61 1200.08L3718.8 1212.79C3721.39 1214.33 3722.54 1215.9 3722.25 1217.52 3721.97 1219.13 3720.38 1220.18 3717.47 1220.66 3714.81 1221.15 3712.59 1222.48 3710.81 1224.66 3710 1225.71 3708.65 1227.47 3706.75 1229.93 3704.86 1232.39 3703.46 1234.19 3702.58 1235.32L3713.84 1235.32C3721.51 1234.99 3728.94 1234.35 3736.12 1233.38L3736.12 1256.14C3725.22 1254.85 3717.79 1254.13 3713.84 1253.96L3683.57 1253.96C3699.87 1271.48 3721.67 1282.95 3748.96 1288.36 3742.58 1294.65 3737.61 1301.43 3734.06 1308.7 3727.85 1306.84 3723.97 1305.55 3722.44 1304.82 3722.19 1308.54 3722.03 1313.3 3721.95 1319.11L3721.95 1368.04C3722.19 1377.4 3722.76 1386.72 3723.65 1396.01L3697.13 1396.01C3697.29 1395.04 3697.57 1393.42 3697.98 1391.16 3698.86 1386.64 3699.35 1383.82 3699.43 1382.69L3624.47 1382.69C3624.79 1386.72 3625.56 1391.69 3626.77 1397.58L3600.25 1397.58C3601.3 1386.44 3601.95 1376.92 3602.19 1369L3602.19 1326.14C3602.03 1318.31 3601.87 1313.34 3601.71 1311.24 3599.04 1313.18 3595.73 1315.4 3591.78 1317.9 3585.96 1310.48 3580.68 1304.78 3575.91 1300.83 3601.99 1289.12 3622.17 1273.5 3636.46 1253.96L3618.78 1253.96C3611.19 1254.05 3603.36 1254.69 3595.29 1255.9L3595.29 1233.38C3604.81 1234.59 3612.64 1235.24 3618.78 1235.32L3622.78 1235.32C3617.93 1228.29 3612.4 1221.19 3606.19 1214L3620.6 1203.83C3618.82 1203.91 3616.08 1203.91 3612.36 1203.83 3610.59 1203.83 3609.25 1203.83 3608.37 1203.83 3605.3 1196.32 3601.18 1188.53 3596.01 1180.46 3605.78 1182.08 3614.3 1183 3621.57 1183.25 3628.83 1183.49 3634.04 1183.61 3637.19 1183.61 3644.53 1183.61 3652 1183.33 3659.59 1182.76 3682.68 1180.74 3700.24 1176.87 3712.26 1171.14Z" fill="url(#fill3)" fill-rule="evenodd"/><text fill="#000000" fill-opacity="0" font-family="Arial,Arial_MSFontService,sans-serif" font-size="227.414" x="3269.67" y="1370.12">直播</text><g><g><g><path d="M207.994 14.5112 143.5 78.1994 79.0056 14.5112M40.309 78.1994 246.691 78.1994C260.939 78.1994 272.489 89.6051 272.489 103.675L272.489 243.789C272.489 257.858 260.939 269.264 246.691 269.264L40.309 269.264C26.0612 269.264 14.5112 257.858 14.5112 243.789L14.5112 103.675C14.5112 89.6051 26.0612 78.1994 40.309 78.1994Z" stroke="url(#stroke4)" stroke-width="29.0225" stroke-linecap="round" stroke-linejoin="round" fill="none" transform="matrix(1 0 0 1.00079 2374 1142)"/><path d="M104.803 239.637 104.803 107.02 209.002 173.329 104.803 239.637Z" fill="url(#fill5)" transform="matrix(1 0 0 1.00079 2374 1142)"/></g></g></g></g></svg>