<svg width="1647" height="926" xmlns="http://www.w3.org/2000/svg" xmlns:xlink="http://www.w3.org/1999/xlink" xml:space="preserve" overflow="hidden"><defs><clipPath id="clip0"><rect x="2232" y="831" width="1647" height="926"/></clipPath><linearGradient x1="2412.25" y1="650.75" x2="3698.75" y2="1937.25" gradientUnits="userSpaceOnUse" spreadMethod="reflect" id="fill1"><stop offset="0" stop-color="#0590D6"/><stop offset="0.3" stop-color="#0590D6"/><stop offset="1" stop-color="#002A60"/></linearGradient><linearGradient x1="2934.48" y1="960.637" x2="3577.98" y2="1604.14" gradientUnits="userSpaceOnUse" spreadMethod="reflect" id="fill2"><stop offset="0" stop-color="#E0DFDC"/><stop offset="0.0294118" stop-color="#E1E0DD"/><stop offset="0.0588235" stop-color="#E3E2DF"/><stop offset="0.0882353" stop-color="#E4E4E1"/><stop offset="0.117647" stop-color="#E6E5E3"/><stop offset="0.147059" stop-color="#E7E7E5"/><stop offset="0.176471" stop-color="#E9E8E6"/><stop offset="0.205882" stop-color="#EAEAE8"/><stop offset="0.235294" stop-color="#ECEBE9"/><stop offset="0.264706" stop-color="#EDEDEB"/><stop offset="0.294118" stop-color="#EEEEEC"/><stop offset="0.323529" stop-color="#F0EFEE"/><stop offset="0.352941" stop-color="#F1F0EF"/><stop offset="0.382353" stop-color="#F2F2F0"/><stop offset="0.411765" stop-color="#F3F3F2"/><stop offset="0.441176" stop-color="#F4F4F3"/><stop offset="0.470588" stop-color="#F5F5F4"/><stop offset="0.5" stop-color="#F6F6F5"/><stop offset="0.529412" stop-color="#F7F7F6"/><stop offset="0.558824" stop-color="#F8F8F7"/><stop offset="0.588235" stop-color="#F9F8F8"/><stop offset="0.617647" stop-color="#F9F9F9"/><stop offset="0.647059" stop-color="#FAFAFA"/><stop offset="0.676471" stop-color="#FBFBFA"/><stop offset="0.705882" stop-color="#FBFBFB"/><stop offset="0.735294" stop-color="#FCFCFC"/><stop offset="0.764706" stop-color="#FCFCFC"/><stop offset="0.794118" stop-color="#FDFDFD"/><stop offset="0.823529" stop-color="#FDFDFD"/><stop offset="0.852941" stop-color="#FEFEFE"/><stop offset="0.882353" stop-color="#FEFEFE"/><stop offset="0.911765" stop-color="#FEFEFE"/><stop offset="0.941176" stop-color="#FEFEFE"/><stop offset="0.970588" stop-color="#FEFEFE"/><stop offset="1" stop-color="#FFFFFF"/></linearGradient><linearGradient x1="3256.23" y1="1430.89" x2="3256.23" y2="1133.89" gradientUnits="userSpaceOnUse" spreadMethod="reflect" id="fill3"><stop offset="0" stop-color="#E0DFDC"/><stop offset="0.0294118" stop-color="#E1E0DD"/><stop offset="0.0588235" stop-color="#E3E2DF"/><stop offset="0.0882353" stop-color="#E4E4E1"/><stop offset="0.117647" stop-color="#E6E5E3"/><stop offset="0.147059" stop-color="#E7E7E5"/><stop offset="0.176471" stop-color="#E9E8E6"/><stop offset="0.205882" stop-color="#EAEAE8"/><stop offset="0.235294" stop-color="#ECEBE9"/><stop offset="0.264706" stop-color="#EDEDEB"/><stop offset="0.294118" stop-color="#EEEEEC"/><stop offset="0.323529" stop-color="#F0EFEE"/><stop offset="0.352941" stop-color="#F1F0EF"/><stop offset="0.382353" stop-color="#F2F2F0"/><stop offset="0.411765" stop-color="#F3F3F2"/><stop offset="0.441176" stop-color="#F4F4F3"/><stop offset="0.470588" stop-color="#F5F5F4"/><stop offset="0.5" stop-color="#F6F6F5"/><stop offset="0.529412" stop-color="#F7F7F6"/><stop offset="0.558824" stop-color="#F8F8F7"/><stop offset="0.588235" stop-color="#F9F8F8"/><stop offset="0.617647" stop-color="#F9F9F9"/><stop offset="0.647059" stop-color="#FAFAFA"/><stop offset="0.676471" stop-color="#FBFBFA"/><stop offset="0.705882" stop-color="#FBFBFB"/><stop offset="0.735294" stop-color="#FCFCFC"/><stop offset="0.764706" stop-color="#FCFCFC"/><stop offset="0.794118" stop-color="#FDFDFD"/><stop offset="0.823529" stop-color="#FDFDFD"/><stop offset="0.852941" stop-color="#FEFEFE"/><stop offset="0.882353" stop-color="#FEFEFE"/><stop offset="0.911765" stop-color="#FEFEFE"/><stop offset="0.941176" stop-color="#FEFEFE"/><stop offset="0.970588" stop-color="#FEFEFE"/><stop offset="1" stop-color="#FFFFFF"/></linearGradient><linearGradient x1="143.5" y1="14.5112" x2="143.5" y2="269.264" gradientUnits="userSpaceOnUse" spreadMethod="pad" id="stroke4"><stop offset="0" stop-color="#E0DFDC"/><stop offset="1" stop-color="#FFFFFF"/></linearGradient><linearGradient x1="156.903" y1="107.02" x2="156.903" y2="239.637" gradientUnits="userSpaceOnUse" spreadMethod="pad" id="fill5"><stop offset="0" stop-color="#E0DFDC"/><stop offset="1" stop-color="#FFFFFF"/></linearGradient></defs><g clip-path="url(#clip0)" transform="translate(-2232 -831)"><rect x="2232" y="831" width="1647" height="926" fill="url(#fill1)"/><path d="M2884.26 1274.98 2884.26 1310.83 2945.29 1310.83 2945.29 1274.98ZM2805.79 1274.98 2805.79 1310.83 2864.88 1310.83 2864.88 1274.98ZM2884.26 1220.73 2884.26 1256.58 2945.29 1256.58 2945.29 1220.73ZM2805.79 1220.73 2805.79 1256.58 2864.88 1256.58 2864.88 1220.73ZM3160.35 1218.8 3178.76 1218.8C3178.76 1255.61 3177.14 1284.35 3173.91 1305.02L3187.48 1305.02 3187.48 1366.05C3187.48 1368.63 3188.44 1370.57 3190.38 1371.86 3192.32 1373.15 3196.84 1373.8 3203.94 1373.8 3214.92 1373.8 3221.54 1372.51 3223.8 1369.92 3226.06 1367.34 3227.52 1359.27 3228.16 1345.7L3246.57 1350.55C3245.28 1367.98 3242.05 1379.29 3236.88 1384.45 3233.65 1388.33 3222.67 1390.27 3203.94 1390.27 3187.8 1390.27 3177.79 1388.97 3173.91 1386.39 3170.04 1383.81 3168.1 1378.96 3168.1 1371.86L3168.1 1324.39C3157.12 1355.39 3133.55 1379.29 3097.38 1396.08L3087.69 1379.61C3106.42 1370.57 3121.28 1359.59 3132.26 1346.67 3143.24 1333.76 3150.66 1319.06 3154.54 1302.59 3158.41 1286.13 3160.35 1258.19 3160.35 1218.8ZM3117.73 1178.11 3221.38 1178.11 3221.38 1316.64 3202.01 1316.64 3202.01 1195.55 3137.1 1195.55 3137.1 1316.64 3117.73 1316.64ZM2864.88 1170.36 2884.26 1170.36 2884.26 1202.33 2964.66 1202.33 2964.66 1329.23 2884.26 1329.23 2884.26 1360.23C2884.26 1364.11 2885.87 1366.85 2889.1 1368.47 2892.33 1370.08 2902.99 1370.89 2921.07 1370.89 2932.05 1370.89 2943.35 1370.57 2954.98 1369.92 2964.02 1369.92 2969.51 1368.31 2971.44 1365.08 2973.38 1361.85 2975 1354.1 2976.29 1341.83L2997.6 1350.55C2994.37 1370.57 2989.2 1381.87 2982.1 1384.45 2973.7 1387.68 2953.36 1389.3 2921.07 1389.3L2908.48 1389.3C2890.39 1389.3 2878.61 1387.52 2873.12 1383.97 2867.63 1380.42 2864.88 1374.77 2864.88 1367.02L2864.88 1329.23 2805.79 1329.23 2805.79 1341.83 2786.41 1341.83 2786.41 1202.33 2864.88 1202.33ZM3062.51 1168.42C3068.32 1178.11 3073.16 1188.44 3077.04 1199.42L3105.13 1199.42 3105.13 1217.83C3097.38 1236.56 3088.99 1253.03 3079.94 1267.23 3090.92 1274.34 3100.29 1281.77 3108.04 1289.52L3095.44 1305.98C3088.99 1298.88 3082.53 1292.1 3076.07 1285.64L3076.07 1394.14 3057.66 1394.14 3057.66 1298.23C3047.98 1309.86 3038.61 1318.58 3029.57 1324.39L3017.94 1306.95C3045.07 1288.22 3067.67 1258.52 3085.76 1217.83L3024.73 1217.83 3024.73 1199.42 3056.69 1199.42C3052.82 1191.67 3048.62 1184.24 3044.1 1177.14Z" fill="url(#fill2)" fill-rule="evenodd"/><text fill="#000000" fill-opacity="0" font-family="Arial,Arial_MSFontService,sans-serif" font-size="227.656" x="2786.41" y="1367.62">电视</text><path d="M3326.94 1349.58 3326.94 1367.98 3432.54 1367.98 3432.54 1349.58ZM3670.85 1343.77 3670.85 1364.11 3709.6 1364.11 3709.6 1343.77ZM3618.54 1343.77 3618.54 1364.11 3653.41 1364.11 3653.41 1343.77ZM3326.94 1316.64 3326.94 1334.08 3432.54 1334.08 3432.54 1316.64ZM3670.85 1308.89 3670.85 1329.23 3709.6 1329.23 3709.6 1308.89ZM3618.54 1308.89 3618.54 1329.23 3653.41 1329.23 3653.41 1308.89ZM3600.13 1293.39 3727.04 1293.39 3727.04 1393.17 3709.6 1393.17 3709.6 1380.58 3618.54 1380.58 3618.54 1393.17 3600.13 1393.17ZM3326.94 1284.67 3326.94 1301.14 3432.54 1301.14 3432.54 1284.67ZM3326.94 1251.73 3326.94 1269.17 3432.54 1269.17 3432.54 1251.73ZM3721.23 1170.36 3729.94 1186.83C3712.51 1190.06 3693.13 1192.64 3671.82 1194.58L3671.82 1223.64 3690.23 1223.64C3694.75 1215.24 3698.62 1206.85 3701.85 1198.45L3721.23 1203.3 3709.6 1223.64 3736.73 1223.64 3736.73 1241.08 3687.32 1241.08C3701.53 1255.93 3719.61 1266.91 3741.57 1274.02L3732.85 1291.45C3708.95 1281.12 3688.61 1265.62 3671.82 1244.95L3671.82 1286.61 3653.41 1286.61 3653.41 1247.86C3638.56 1265.3 3620.15 1279.51 3598.19 1290.48L3586.57 1274.98C3608.53 1265.94 3625.96 1254.64 3638.88 1241.08L3592.38 1241.08 3592.38 1223.64 3614.66 1223.64C3613.37 1217.83 3611.43 1212.98 3608.85 1209.11L3624.35 1201.36C3628.23 1207.82 3631.78 1215.24 3635.01 1223.64L3653.41 1223.64 3653.41 1195.55C3637.27 1196.84 3620.15 1197.81 3602.07 1198.45L3596.26 1181.02C3638.24 1181.02 3679.89 1177.46 3721.23 1170.36ZM3542.01 1170.36 3560.41 1170.36 3560.41 1211.05 3583.66 1211.05 3583.66 1229.45 3560.41 1229.45 3560.41 1277.89 3578.82 1267.23 3582.69 1284.67C3575.59 1289.84 3568.16 1294.68 3560.41 1299.2L3560.41 1367.98C3560.41 1377.67 3559.12 1384.29 3556.54 1387.84 3553.95 1391.4 3549.11 1393.17 3542.01 1393.17 3535.55 1393.17 3529.41 1392.53 3523.6 1391.23L3518.76 1372.83C3525.86 1374.12 3532.64 1374.77 3539.1 1374.77 3541.04 1374.77 3542.01 1370.89 3542.01 1363.14L3542.01 1308.89C3535.55 1312.77 3528.77 1316.32 3521.66 1319.55L3514.88 1299.2C3524.57 1295.33 3533.61 1291.13 3542.01 1286.61L3542.01 1229.45 3518.76 1229.45 3518.76 1211.05 3542.01 1211.05ZM3374.41 1170.36 3394.76 1170.36 3391.85 1191.67 3482.91 1191.67 3482.91 1210.08 3387.98 1210.08 3384.1 1233.33 3451.91 1233.33 3451.91 1367.98 3487.76 1367.98 3487.76 1386.39 3273.66 1386.39 3273.66 1367.98 3307.57 1367.98 3307.57 1233.33 3363.76 1233.33 3367.63 1210.08 3277.54 1210.08 3277.54 1191.67 3371.51 1191.67Z" fill="url(#fill3)" fill-rule="evenodd"/><text fill="#000000" fill-opacity="0" font-family="Arial,Arial_MSFontService,sans-serif" font-size="222.812" x="3273.66" y="1365.32">直播</text><g><g><g><path d="M207.994 14.5112 143.5 78.1994 79.0056 14.5112M40.309 78.1994 246.691 78.1994C260.939 78.1994 272.489 89.6051 272.489 103.675L272.489 243.789C272.489 257.858 260.939 269.264 246.691 269.264L40.309 269.264C26.0612 269.264 14.5112 257.858 14.5112 243.789L14.5112 103.675C14.5112 89.6051 26.0612 78.1994 40.309 78.1994Z" stroke="url(#stroke4)" stroke-width="29.0225" stroke-linecap="round" stroke-linejoin="round" fill="none" transform="matrix(1 0 0 1.00079 2374 1142)"/><path d="M104.803 239.637 104.803 107.02 209.002 173.329 104.803 239.637Z" fill="url(#fill5)" transform="matrix(1 0 0 1.00079 2374 1142)"/></g></g></g></g></svg>