<svg width="84" height="83" xmlns="http://www.w3.org/2000/svg" xmlns:xlink="http://www.w3.org/1999/xlink" xml:space="preserve" overflow="hidden"><defs><linearGradient x1="41.9716" y1="4.24432" x2="41.9716" y2="78.7557" gradientUnits="userSpaceOnUse" spreadMethod="pad" id="stroke0"><stop offset="0" stop-color="#E0DFDC"/><stop offset="1" stop-color="#FFFFFF"/></linearGradient><linearGradient x1="45.8917" y1="31.3018" x2="45.8917" y2="70.0902" gradientUnits="userSpaceOnUse" spreadMethod="pad" id="fill1"><stop offset="0" stop-color="#E0DFDC"/><stop offset="1" stop-color="#FFFFFF"/></linearGradient></defs><g transform="translate(-690 -332)"><path d="M60.8352 4.24432 41.9716 22.8722 23.108 4.24432M11.7898 22.8722 72.1534 22.8722C76.3209 22.8722 79.6989 26.2081 79.6989 30.3233L79.6989 71.3045C79.6989 75.4196 76.3209 78.7557 72.1534 78.7557L11.7898 78.7557C7.62251 78.7557 4.24432 75.4196 4.24432 71.3045L4.24432 30.3233C4.24432 26.2081 7.62251 22.8722 11.7898 22.8722Z" stroke="url(#stroke0)" stroke-width="8.48864" stroke-linecap="round" stroke-linejoin="round" fill="none" transform="matrix(1.00068 0 0 1 690 332)"/><path d="M30.6534 70.0902 30.6534 31.3018 61.13 50.696 30.6534 70.0902Z" fill="url(#fill1)" transform="matrix(1.00068 0 0 1 690 332)"/></g></svg>